<?xml version="1.0" encoding="UTF-8" standalone="no"?>
<svg xmlns:dc="http://purl.org/dc/elements/1.1/" xmlns:cc="http://creativecommons.org/ns#"
   xmlns:rdf="http://www.w3.org/1999/02/22-rdf-syntax-ns#" xmlns:svg="http://www.w3.org/2000/svg"
   xmlns="http://www.w3.org/2000/svg" xmlns:sodipodi="http://sodipodi.sourceforge.net/DTD/sodipodi-0.dtd"
   xmlns:inkscape="http://www.inkscape.org/namespaces/inkscape" width="160.94615mm" height="24.203863mm"
   viewBox="0 0 160.94615 24.203863" version="1.1" id="svg8" inkscape:version="1.0.2-2 (e86c870879, 2021-01-15)"
   sodipodi:docname="nexusmeet.svg">
   <defs id="defs2">
      <g id="g10" />
   </defs>
   <sodipodi:namedview id="base" pagecolor="#ffffff" bordercolor="#666666" borderopacity="1.0"
      inkscape:pageopacity="0.0" inkscape:pageshadow="2" inkscape:zoom="0.35" inkscape:cx="1818.4359"
      inkscape:cy="491.45387" inkscape:document-units="mm" inkscape:current-layer="layer1"
      inkscape:document-rotation="0" showgrid="false" fit-margin-top="0" fit-margin-left="0" fit-margin-right="0"
      fit-margin-bottom="0" inkscape:window-width="1624" inkscape:window-height="997" inkscape:window-x="228"
      inkscape:window-y="228" inkscape:window-maximized="0" />
   <metadata id="metadata5">
      <rdf:RDF>
         <cc:Work rdf:about="">
            <dc:format>image/svg+xml</dc:format>
            <dc:type rdf:resource="http://purl.org/dc/dcmitype/StillImage" />
            <dc:title></dc:title>
         </cc:Work>
      </rdf:RDF>
   </metadata>
   <g inkscape:label="Layer 1" inkscape:groupmode="layer" id="layer1" transform="translate(375.29451,-18.136164)">
      <g id="g129" transform="matrix(0.35277778,0,0,0.35277778,-383.15503,-16.508235)">
         <g fill="#3871c1" fill-opacity="1" id="g20">
            <g transform="translate(15.813049,166.81397)" id="g18">
               <g id="g16">
                  <path
                     d="m 47.34375,-11.171875 c 0,1.40625 -0.08594,2.78125 -0.25,4.125 -0.15625,1.335937 -0.507812,2.527344 -1.046875,3.578125 -0.542969,1.042969 -1.3125,1.882812 -2.3125,2.515625 C 42.742188,-0.316406 41.398438,0 39.703125,0 38.035156,0 36.710938,-0.316406 35.734375,-0.953125 34.753906,-1.585938 34,-2.425781 33.46875,-3.46875 c -0.523438,-1.050781 -0.855469,-2.242188 -1,-3.578125 -0.148438,-1.34375 -0.21875,-2.71875 -0.21875,-4.125 V -30.28125 c 0,-0.914062 -0.04297,-1.816406 -0.125,-2.703125 -0.08594,-0.882813 -0.273438,-1.660156 -0.5625,-2.328125 -0.292969,-0.664062 -0.726562,-1.203125 -1.296875,-1.609375 -0.574219,-0.414063 -1.351563,-0.625 -2.328125,-0.625 -1.34375,0 -2.429688,0.445313 -3.25,1.328125 -0.8125,0.886719 -1.453125,2.101562 -1.921875,3.640625 -0.46875,1.53125 -0.789063,3.335937 -0.953125,5.40625 -0.167969,2.074219 -0.25,4.304687 -0.25,6.6875 v 9.3125 c 0,1.40625 -0.08594,2.78125 -0.25,4.125 -0.15625,1.335937 -0.507812,2.527344 -1.046875,3.578125 -0.542969,1.042969 -1.3125,1.882812 -2.3125,2.515625 C 16.960938,-0.316406 15.617188,0 13.921875,0 12.253906,0 10.929688,-0.316406 9.953125,-0.953125 8.972656,-1.585938 8.21875,-2.425781 7.6875,-3.46875 c -0.523438,-1.050781 -0.855469,-2.242188 -1,-3.578125 -0.148438,-1.34375 -0.21875,-2.71875 -0.21875,-4.125 V -37.9375 c 0,-1.40625 0.046875,-2.769531 0.140625,-4.09375 0.101563,-1.320312 0.398437,-2.492188 0.890625,-3.515625 0.488281,-1.03125 1.226562,-1.863281 2.21875,-2.5 1,-0.644531 2.398438,-0.96875 4.203125,-0.96875 1.789063,0 3.191406,0.304687 4.203125,0.90625 1.019531,0.605469 1.78125,1.335937 2.28125,2.1875 0.507812,0.84375 0.828125,1.742187 0.953125,2.6875 0.132813,0.949219 0.203125,1.765625 0.203125,2.453125 0.257812,-0.945312 0.664062,-1.910156 1.21875,-2.890625 0.5625,-0.976563 1.273438,-1.859375 2.140625,-2.640625 0.863281,-0.78125 1.898437,-1.425781 3.109375,-1.9375 1.207031,-0.507812 2.613281,-0.765625 4.21875,-0.765625 1.789062,0 3.585938,0.296875 5.390625,0.890625 1.800781,0.585938 3.421875,1.5625 4.859375,2.9375 1.4375,1.375 2.601562,3.171875 3.5,5.390625 0.894531,2.21875 1.34375,4.964844 1.34375,8.234375 z m 0,0"
                     id="path14" />
               </g>
            </g>
         </g>
         <g fill="#3871c1" fill-opacity="1" id="g28">
            <g transform="translate(68.826008,166.81397)" id="g26">
               <g id="g24">
                  <path
                     d="m 45.875,-27.9375 c 0,0.523438 -0.03906,1.136719 -0.109375,1.84375 -0.0625,0.699219 -0.3125,1.367188 -0.75,2 -0.4375,0.636719 -1.132813,1.183594 -2.078125,1.640625 -0.949219,0.460937 -2.289062,0.6875 -4.015625,0.6875 H 19.40625 v 4.703125 c 0,0.792969 0.09766,1.617188 0.296875,2.46875 0.195313,0.84375 0.53125,1.625 1,2.34375 0.476563,0.71875 1.109375,1.308594 1.890625,1.765625 0.78125,0.460937 1.742188,0.6875 2.890625,0.6875 1.3125,0 2.316406,-0.15625 3.015625,-0.46875 0.695312,-0.3125 1.25,-0.695313 1.65625,-1.15625 0.414062,-0.457031 0.785156,-0.945313 1.109375,-1.46875 0.332031,-0.519531 0.765625,-1.007813 1.296875,-1.46875 0.539062,-0.457031 1.289062,-0.84375 2.25,-1.15625 0.96875,-0.3125 2.300781,-0.46875 4,-0.46875 0.820312,0 1.613281,0.07031 2.375,0.203125 0.769531,0.136719 1.445312,0.386719 2.03125,0.75 0.59375,0.355469 1.066406,0.851562 1.421875,1.484375 0.363281,0.636719 0.546875,1.460937 0.546875,2.46875 0,2.125 -0.671875,3.902344 -2.015625,5.328125 C 41.835938,-4.332031 40.15625,-3.195312 38.125,-2.34375 36.101562,-1.5 33.90625,-0.894531 31.53125,-0.53125 29.164062,-0.175781 26.953125,0 24.890625,0 22.179688,-0.03125 19.601562,-0.375 17.15625,-1.03125 c -2.449219,-0.65625 -4.617188,-1.703125 -6.5,-3.140625 -1.875,-1.4375 -3.371094,-3.3125 -4.484375,-5.625 -1.105469,-2.320313 -1.65625,-5.164063 -1.65625,-8.53125 v -11.46875 c 0,-3.101563 0.363281,-5.734375 1.09375,-7.890625 0.738281,-2.15625 1.695313,-3.953125 2.875,-5.390625 1.175781,-1.4375 2.5,-2.554687 3.96875,-3.359375 1.46875,-0.800781 2.953125,-1.394531 4.453125,-1.78125 1.5,-0.394531 2.925781,-0.640625 4.28125,-0.734375 1.363281,-0.101563 2.535156,-0.15625 3.515625,-0.15625 3.300781,0 6.117187,0.296875 8.453125,0.890625 2.332031,0.585938 4.28125,1.351562 5.84375,2.296875 1.570312,0.949219 2.816406,2.042969 3.734375,3.28125 0.914063,1.242187 1.601563,2.523437 2.0625,3.84375 0.457031,1.324219 0.75,2.667969 0.875,4.03125 0.132813,1.355469 0.203125,2.621094 0.203125,3.796875 z m -26.46875,-1.171875 h 12.25 c 0,-1.539063 -0.04297,-2.90625 -0.125,-4.09375 -0.07422,-1.195313 -0.320312,-2.203125 -0.734375,-3.015625 -0.40625,-0.8125 -1.042969,-1.429688 -1.90625,-1.859375 -0.867187,-0.425781 -2.101563,-0.640625 -3.703125,-0.640625 -1.335938,0 -2.386719,0.214844 -3.15625,0.640625 -0.773438,0.429687 -1.355469,0.960937 -1.75,1.59375 -0.386719,0.636719 -0.632812,1.3125 -0.734375,2.03125 -0.09375,0.71875 -0.140625,1.355469 -0.140625,1.90625 z m 0,0"
                     id="path22" />
               </g>
            </g>
         </g>
         <g fill="#3871c1" fill-opacity="1" id="g36">
            <g transform="translate(118.80126,166.81397)" id="g34">
               <g id="g32">
                  <path
                     d="m 35.6875,-49.015625 c 0.550781,0 1.132812,0.101563 1.75,0.296875 0.625,0.199219 1.28125,0.527344 1.96875,0.984375 0.976562,0.65625 1.679688,1.359375 2.109375,2.109375 0.425781,0.75 0.640625,1.546875 0.640625,2.390625 0,1.085937 -0.265625,2.214844 -0.796875,3.390625 -0.523437,1.179688 -1.171875,2.304688 -1.953125,3.375 L 30.6875,-24.5 l 8.71875,11.859375 c 0.75,1.148437 1.394531,2.292969 1.9375,3.4375 0.539062,1.136719 0.8125,2.246094 0.8125,3.328125 0,0.84375 -0.214844,1.664062 -0.640625,2.453125 -0.429687,0.78125 -1.132813,1.496094 -2.109375,2.140625 C 38.09375,-0.425781 36.882812,0 35.78125,0 c -0.6875,0 -1.335938,-0.144531 -1.9375,-0.4375 -0.605469,-0.289062 -1.179688,-0.679688 -1.71875,-1.171875 -0.542969,-0.5 -1.070312,-1.070313 -1.578125,-1.71875 -0.5,-0.65625 -1.011719,-1.34375 -1.53125,-2.0625 l -5.875,-8.234375 -6.078125,8.234375 c -0.460938,0.75 -0.933594,1.453125 -1.421875,2.109375 -0.492187,0.65625 -1.007813,1.230469 -1.546875,1.71875 -0.542969,0.492188 -1.109375,0.875 -1.703125,1.15625 C 11.804688,-0.132812 11.171875,0 10.484375,0 9.378906,0 8.171875,-0.425781 6.859375,-1.28125 5.878906,-1.957031 5.175781,-2.679688 4.75,-3.453125 4.320312,-4.222656 4.109375,-5.03125 4.109375,-5.875 c 0,-1.082031 0.269531,-2.191406 0.8125,-3.328125 0.539063,-1.144531 1.1875,-2.289063 1.9375,-3.4375 L 15.09375,-24.5 6.859375,-36.46875 c -0.75,-1.144531 -1.398437,-2.269531 -1.9375,-3.375 -0.542969,-1.113281 -0.8125,-2.207031 -0.8125,-3.28125 0,-0.851562 0.210937,-1.660156 0.640625,-2.421875 0.425781,-0.769531 1.128906,-1.5 2.109375,-2.1875 1.3125,-0.851563 2.519531,-1.28125 3.625,-1.28125 0.6875,0 1.320313,0.140625 1.90625,0.421875 0.59375,0.28125 1.160156,0.667969 1.703125,1.15625 0.539062,0.492188 1.054688,1.054688 1.546875,1.6875 0.488281,0.636719 0.960937,1.3125 1.421875,2.03125 l 6.078125,8.234375 5.875,-8.234375 c 0.488281,-0.71875 0.976563,-1.394531 1.46875,-2.03125 0.488281,-0.632812 1.003906,-1.195312 1.546875,-1.6875 0.539062,-0.488281 1.113281,-0.875 1.71875,-1.15625 0.601562,-0.28125 1.25,-0.421875 1.9375,-0.421875 z m 0,0"
                     id="path30" />
               </g>
            </g>
         </g>
         <g fill="#3871c1" fill-opacity="1" id="g44">
            <g transform="translate(164.75889,166.81397)" id="g42">
               <g id="g40">
                  <path
                     d="m 5.78125,-37.84375 c 0,-1.394531 0.082031,-2.765625 0.25,-4.109375 0.164062,-1.34375 0.515625,-2.535156 1.046875,-3.578125 0.539063,-1.039062 1.304687,-1.878906 2.296875,-2.515625 1,-0.644531 2.347656,-0.96875 4.046875,-0.96875 1.664063,0 2.988281,0.324219 3.96875,0.96875 0.988281,0.636719 1.742187,1.476563 2.265625,2.515625 0.519531,1.042969 0.851562,2.234375 1,3.578125 0.144531,1.34375 0.21875,2.714844 0.21875,4.109375 v 19.125 c 0,0.949219 0.03906,1.855469 0.125,2.71875 0.08203,0.867188 0.269531,1.636719 0.5625,2.3125 0.289062,0.667969 0.722656,1.203125 1.296875,1.609375 0.570313,0.40625 1.347656,0.609375 2.328125,0.609375 1.3125,0 2.382812,-0.4375 3.21875,-1.3125 0.832031,-0.882812 1.484375,-2.09375 1.953125,-3.625 0.476563,-1.539062 0.796875,-3.347656 0.953125,-5.421875 0.164062,-2.082031 0.25,-4.316406 0.25,-6.703125 v -9.3125 c 0,-1.394531 0.07813,-2.765625 0.234375,-4.109375 0.164063,-1.34375 0.519531,-2.535156 1.0625,-3.578125 0.539063,-1.039062 1.304687,-1.878906 2.296875,-2.515625 1,-0.644531 2.347656,-0.96875 4.046875,-0.96875 1.664063,0 2.988281,0.324219 3.96875,0.96875 0.988281,0.636719 1.742187,1.476563 2.265625,2.515625 0.519531,1.042969 0.851562,2.234375 1,3.578125 0.144531,1.34375 0.21875,2.714844 0.21875,4.109375 v 26.765625 c 0,1.40625 -0.05469,2.773437 -0.15625,4.09375 -0.09375,1.324219 -0.386719,2.5 -0.875,3.53125 -0.492188,1.03125 -1.234375,1.867187 -2.234375,2.5 C 42.398438,-0.316406 41.003906,0 39.203125,0 c -1.792969,0 -3.199219,-0.300781 -4.21875,-0.90625 -1.011719,-0.601562 -1.773437,-1.328125 -2.28125,-2.171875 -0.5,-0.851563 -0.820313,-1.753906 -0.953125,-2.703125 -0.125,-0.945312 -0.1875,-1.765625 -0.1875,-2.453125 -0.261719,0.949219 -0.671875,1.914063 -1.234375,2.890625 -0.554687,0.980469 -1.261719,1.867188 -2.125,2.65625 C 27.335938,-1.90625 26.300781,-1.257812 25.09375,-0.75 23.882812,-0.25 22.476562,0 20.875,0 19.082031,0 17.285156,-0.289062 15.484375,-0.875 13.691406,-1.46875 12.078125,-2.445312 10.640625,-3.8125 9.203125,-5.1875 8.03125,-6.984375 7.125,-9.203125 c -0.898438,-2.226563 -1.34375,-4.976563 -1.34375,-8.25 z m 0,0"
                     id="path38" />
               </g>
            </g>
         </g>
         <g fill="#3871c1" fill-opacity="1" id="g52">
            <g transform="translate(217.47788,166.81397)" id="g50">
               <g id="g48">
                  <path
                     d="m 18.921875,-36.171875 c 0,0.65625 0.207031,1.261719 0.625,1.8125 0.425781,0.554687 1.003906,1.085937 1.734375,1.59375 0.738281,0.511719 1.59375,1.011719 2.5625,1.5 0.96875,0.492187 1.972656,0.980469 3.015625,1.46875 1.601563,0.78125 3.238281,1.625 4.90625,2.53125 1.664063,0.898437 3.179687,1.949219 4.546875,3.15625 1.375,1.210937 2.492188,2.605469 3.359375,4.1875 0.863281,1.585937 1.296875,3.453125 1.296875,5.609375 0,1.960938 -0.289062,3.695312 -0.859375,5.203125 -0.5625,1.5 -1.320313,2.796875 -2.265625,3.890625 -0.949219,1.09375 -2.054688,2 -3.3125,2.71875 -1.261719,0.71875 -2.589844,1.292969 -3.984375,1.71875 C 29.160156,-0.351562 27.75,-0.0507812 26.3125,0.125 24.875,0.300781 23.519531,0.390625 22.25,0.390625 c -2.511719,0 -4.699219,-0.210937 -6.5625,-0.625 -1.867188,-0.425781 -3.46875,-0.988281 -4.8125,-1.6875 C 9.539062,-2.628906 8.441406,-3.429688 7.578125,-4.328125 6.710938,-5.234375 6.03125,-6.175781 5.53125,-7.15625 5.039062,-8.132812 4.695312,-9.101562 4.5,-10.0625 4.3125,-11.03125 4.21875,-11.925781 4.21875,-12.75 c 0,-1.957031 0.546875,-3.390625 1.640625,-4.296875 1.09375,-0.914063 2.765625,-1.375 5.015625,-1.375 1.632812,0 2.972656,0.445313 4.015625,1.328125 1.050781,0.875 1.609375,2.292969 1.671875,4.25 0.03125,0.65625 0.21875,1.183594 0.5625,1.578125 0.34375,0.386719 0.785156,0.703125 1.328125,0.953125 0.539063,0.242188 1.132813,0.402344 1.78125,0.484375 0.65625,0.085937 1.296875,0.125 1.921875,0.125 1.269531,0 2.304688,-0.332031 3.109375,-1 0.800781,-0.675781 1.203125,-1.550781 1.203125,-2.625 0,-0.914063 -0.273438,-1.773437 -0.8125,-2.578125 -0.542969,-0.800781 -1.257812,-1.539062 -2.140625,-2.21875 -0.875,-0.6875 -1.875,-1.347656 -3,-1.984375 -1.125,-0.644531 -2.277344,-1.296875 -3.453125,-1.953125 -1.480469,-0.78125 -2.964844,-1.609375 -4.453125,-2.484375 -1.480469,-0.882813 -2.824219,-1.863281 -4.03125,-2.9375 -1.210937,-1.082031 -2.1875,-2.300781 -2.9375,-3.65625 -0.75,-1.363281 -1.125,-2.910156 -1.125,-4.640625 0,-2.539062 0.414063,-4.671875 1.25,-6.390625 0.832031,-1.71875 2.046875,-3.109375 3.640625,-4.171875 1.601562,-1.0625 3.554688,-1.820312 5.859375,-2.28125 2.300781,-0.457031 4.925781,-0.71875 7.875,-0.78125 h 0.78125 c 2.644531,0 4.890625,0.230469 6.734375,0.6875 1.84375,0.460938 3.375,1.058594 4.59375,1.796875 1.226562,0.730469 2.191406,1.554687 2.890625,2.46875 0.707031,0.917969 1.234375,1.84375 1.578125,2.78125 0.34375,0.929687 0.554688,1.820313 0.640625,2.671875 0.08203,0.84375 0.125,1.558594 0.125,2.140625 0,0.980469 -0.203125,1.792969 -0.609375,2.4375 -0.40625,0.636719 -0.949219,1.140625 -1.625,1.515625 -0.667969,0.375 -1.429688,0.636719 -2.28125,0.78125 -0.84375,0.148438 -1.726562,0.234375 -2.640625,0.265625 -0.78125,0 -1.496094,-0.128906 -2.140625,-0.390625 -0.636719,-0.257812 -1.183594,-0.582031 -1.640625,-0.96875 C 29.097656,-33.613281 28.75,-34.054688 28.5,-34.546875 c -0.25,-0.488281 -0.375,-0.960937 -0.375,-1.421875 -0.0625,-1.25 -0.5625,-2.195312 -1.5,-2.84375 -0.929688,-0.65625 -2.058594,-0.984375 -3.390625,-0.984375 -0.5625,0 -1.101563,0.05859 -1.609375,0.171875 -0.5,0.117188 -0.953125,0.3125 -1.359375,0.59375 -0.40625,0.273438 -0.734375,0.636719 -0.984375,1.09375 -0.242188,0.460938 -0.359375,1.046875 -0.359375,1.765625 z m 0,0"
                     id="path46" />
               </g>
            </g>
         </g>
         <g fill="#0dc3ff" fill-opacity="1" id="g60">
            <g transform="translate(261.39458,166.81397)" id="g58">
               <g id="g56">
                  <path
                     d="m 39.59375,0 c -1.667969,0 -2.992188,-0.316406 -3.96875,-0.953125 -0.980469,-0.632813 -1.730469,-1.472656 -2.25,-2.515625 -0.523438,-1.050781 -0.855469,-2.238281 -1,-3.5625 -0.148438,-1.320312 -0.21875,-2.671875 -0.21875,-4.046875 v -19.40625 c 0,-0.882813 -0.04297,-1.75 -0.125,-2.59375 -0.08594,-0.851563 -0.273438,-1.601563 -0.5625,-2.25 -0.292969,-0.65625 -0.726562,-1.1875 -1.296875,-1.59375 -0.574219,-0.414063 -1.351563,-0.625 -2.328125,-0.625 -1.3125,0 -2.382812,0.445313 -3.203125,1.328125 -0.8125,0.886719 -1.460937,2.089844 -1.9375,3.609375 -0.46875,1.511719 -0.792969,3.296875 -0.96875,5.359375 -0.179687,2.0625 -0.265625,4.289062 -0.265625,6.671875 v 9.5 c 0,1.375 -0.07422,2.726563 -0.21875,4.046875 -0.148438,1.324219 -0.476562,2.511719 -0.984375,3.5625 -0.511719,1.042969 -1.257813,1.882812 -2.234375,2.515625 C 17.050781,-0.316406 15.710938,0 14.015625,0 12.316406,0 10.976562,-0.316406 10,-0.953125 9.019531,-1.585938 8.273438,-2.425781 7.765625,-3.46875 7.265625,-4.519531 6.9375,-5.707031 6.78125,-7.03125 6.632812,-8.351562 6.5625,-9.703125 6.5625,-11.078125 V -37.9375 c 0,-1.375 0.054688,-2.722656 0.171875,-4.046875 0.113281,-1.320313 0.414063,-2.503906 0.90625,-3.546875 0.488281,-1.039062 1.234375,-1.878906 2.234375,-2.515625 1,-0.644531 2.378906,-0.96875 4.140625,-0.96875 1.800781,0 3.195313,0.304687 4.1875,0.90625 1,0.605469 1.742187,1.34375 2.234375,2.21875 0.488281,0.867187 0.78125,1.773437 0.875,2.71875 0.101562,0.949219 0.15625,1.746094 0.15625,2.390625 0.289062,-0.945312 0.753906,-1.910156 1.390625,-2.890625 0.632813,-0.976563 1.441406,-1.859375 2.421875,-2.640625 0.988281,-0.78125 2.117188,-1.425781 3.390625,-1.9375 1.269531,-0.507812 2.691406,-0.765625 4.265625,-0.765625 2.15625,0 4.242188,0.527344 6.265625,1.578125 2.03125,1.042969 3.765625,2.742188 5.203125,5.09375 0.488281,-1.113281 1.207031,-2.085938 2.15625,-2.921875 0.945312,-0.832031 2.023438,-1.523437 3.234375,-2.078125 1.207031,-0.550781 2.492187,-0.96875 3.859375,-1.25 1.375,-0.28125 2.734375,-0.421875 4.078125,-0.421875 1.800781,0 3.597656,0.296875 5.390625,0.890625 1.800781,0.585938 3.421875,1.5625 4.859375,2.9375 1.4375,1.375 2.601563,3.167969 3.5,5.375 0.894531,2.199219 1.34375,4.917969 1.34375,8.15625 v 20.578125 c 0,1.375 -0.08594,2.726563 -0.25,4.046875 -0.15625,1.324219 -0.5,2.511719 -1.03125,3.5625 -0.523437,1.042969 -1.28125,1.882812 -2.28125,2.515625 C 68.273438,-0.316406 66.945312,0 65.28125,0 c -1.699219,0 -3.046875,-0.316406 -4.046875,-0.953125 -0.992187,-0.632813 -1.75,-1.472656 -2.28125,-2.515625 -0.523437,-1.050781 -0.855469,-2.238281 -1,-3.5625 -0.148437,-1.320312 -0.21875,-2.671875 -0.21875,-4.046875 v -19.40625 c 0,-0.882813 -0.05469,-1.75 -0.15625,-2.59375 -0.09375,-0.851563 -0.289063,-1.601563 -0.578125,-2.25 -0.292969,-0.65625 -0.734375,-1.1875 -1.328125,-1.59375 -0.585937,-0.414063 -1.367187,-0.625 -2.34375,-0.625 -1.054687,0 -1.949219,0.328125 -2.6875,0.984375 -0.730469,0.65625 -1.339844,1.558594 -1.828125,2.703125 -0.492188,1.136719 -0.867188,2.5 -1.125,4.09375 -0.261719,1.585937 -0.4375,3.304687 -0.53125,5.15625 v 13.53125 c 0,1.375 -0.07813,2.726563 -0.234375,4.046875 -0.148437,1.324219 -0.480469,2.511719 -1,3.5625 -0.523437,1.042969 -1.28125,1.882812 -2.28125,2.515625 C 42.648438,-0.316406 41.300781,0 39.59375,0 Z m 0,0"
                     id="path54" />
               </g>
            </g>
         </g>
         <g fill="#0dc3ff" fill-opacity="1" id="g68">
            <g transform="translate(340.00858,166.81397)" id="g66">
               <g id="g64">
                  <path
                     d="m 45.875,-27.9375 c 0,0.523438 -0.03906,1.136719 -0.109375,1.84375 -0.0625,0.699219 -0.3125,1.367188 -0.75,2 -0.4375,0.636719 -1.132813,1.183594 -2.078125,1.640625 -0.949219,0.460937 -2.289062,0.6875 -4.015625,0.6875 H 19.40625 v 4.703125 c 0,0.792969 0.09766,1.617188 0.296875,2.46875 0.195313,0.84375 0.53125,1.625 1,2.34375 0.476563,0.71875 1.109375,1.308594 1.890625,1.765625 0.78125,0.460937 1.742188,0.6875 2.890625,0.6875 1.3125,0 2.316406,-0.15625 3.015625,-0.46875 0.695312,-0.3125 1.25,-0.695313 1.65625,-1.15625 0.414062,-0.457031 0.785156,-0.945313 1.109375,-1.46875 0.332031,-0.519531 0.765625,-1.007813 1.296875,-1.46875 0.539062,-0.457031 1.289062,-0.84375 2.25,-1.15625 0.96875,-0.3125 2.300781,-0.46875 4,-0.46875 0.820312,0 1.613281,0.07031 2.375,0.203125 0.769531,0.136719 1.445312,0.386719 2.03125,0.75 0.59375,0.355469 1.066406,0.851562 1.421875,1.484375 0.363281,0.636719 0.546875,1.460937 0.546875,2.46875 0,2.125 -0.671875,3.902344 -2.015625,5.328125 C 41.835938,-4.332031 40.15625,-3.195312 38.125,-2.34375 36.101562,-1.5 33.90625,-0.894531 31.53125,-0.53125 29.164062,-0.175781 26.953125,0 24.890625,0 22.179688,-0.03125 19.601562,-0.375 17.15625,-1.03125 c -2.449219,-0.65625 -4.617188,-1.703125 -6.5,-3.140625 -1.875,-1.4375 -3.371094,-3.3125 -4.484375,-5.625 -1.105469,-2.320313 -1.65625,-5.164063 -1.65625,-8.53125 v -11.46875 c 0,-3.101563 0.363281,-5.734375 1.09375,-7.890625 0.738281,-2.15625 1.695313,-3.953125 2.875,-5.390625 1.175781,-1.4375 2.5,-2.554687 3.96875,-3.359375 1.46875,-0.800781 2.953125,-1.394531 4.453125,-1.78125 1.5,-0.394531 2.925781,-0.640625 4.28125,-0.734375 1.363281,-0.101563 2.535156,-0.15625 3.515625,-0.15625 3.300781,0 6.117187,0.296875 8.453125,0.890625 2.332031,0.585938 4.28125,1.351562 5.84375,2.296875 1.570312,0.949219 2.816406,2.042969 3.734375,3.28125 0.914063,1.242187 1.601563,2.523437 2.0625,3.84375 0.457031,1.324219 0.75,2.667969 0.875,4.03125 0.132813,1.355469 0.203125,2.621094 0.203125,3.796875 z m -26.46875,-1.171875 h 12.25 c 0,-1.539063 -0.04297,-2.90625 -0.125,-4.09375 -0.07422,-1.195313 -0.320312,-2.203125 -0.734375,-3.015625 -0.40625,-0.8125 -1.042969,-1.429688 -1.90625,-1.859375 -0.867187,-0.425781 -2.101563,-0.640625 -3.703125,-0.640625 -1.335938,0 -2.386719,0.214844 -3.15625,0.640625 -0.773438,0.429687 -1.355469,0.960937 -1.75,1.59375 -0.386719,0.636719 -0.632812,1.3125 -0.734375,2.03125 -0.09375,0.71875 -0.140625,1.355469 -0.140625,1.90625 z m 0,0"
                     id="path62" />
               </g>
            </g>
         </g>
         <g fill="#0dc3ff" fill-opacity="1" id="g76">
            <g transform="translate(390.00002,166.81397)" id="g74">
               <g id="g72">
                  <path
                     d="m 45.875,-27.9375 c 0,0.523438 -0.03906,1.136719 -0.109375,1.84375 -0.0625,0.699219 -0.3125,1.367188 -0.75,2 -0.4375,0.636719 -1.132813,1.183594 -2.078125,1.640625 -0.949219,0.460937 -2.289062,0.6875 -4.015625,0.6875 H 19.40625 v 4.703125 c 0,0.792969 0.09766,1.617188 0.296875,2.46875 0.195313,0.84375 0.53125,1.625 1,2.34375 0.476563,0.71875 1.109375,1.308594 1.890625,1.765625 0.78125,0.460937 1.742188,0.6875 2.890625,0.6875 1.3125,0 2.316406,-0.15625 3.015625,-0.46875 0.695312,-0.3125 1.25,-0.695313 1.65625,-1.15625 0.414062,-0.457031 0.785156,-0.945313 1.109375,-1.46875 0.332031,-0.519531 0.765625,-1.007813 1.296875,-1.46875 0.539062,-0.457031 1.289062,-0.84375 2.25,-1.15625 0.96875,-0.3125 2.300781,-0.46875 4,-0.46875 0.820312,0 1.613281,0.07031 2.375,0.203125 0.769531,0.136719 1.445312,0.386719 2.03125,0.75 0.59375,0.355469 1.066406,0.851562 1.421875,1.484375 0.363281,0.636719 0.546875,1.460937 0.546875,2.46875 0,2.125 -0.671875,3.902344 -2.015625,5.328125 C 41.835938,-4.332031 40.15625,-3.195312 38.125,-2.34375 36.101562,-1.5 33.90625,-0.894531 31.53125,-0.53125 29.164062,-0.175781 26.953125,0 24.890625,0 22.179688,-0.03125 19.601562,-0.375 17.15625,-1.03125 c -2.449219,-0.65625 -4.617188,-1.703125 -6.5,-3.140625 -1.875,-1.4375 -3.371094,-3.3125 -4.484375,-5.625 -1.105469,-2.320313 -1.65625,-5.164063 -1.65625,-8.53125 v -11.46875 c 0,-3.101563 0.363281,-5.734375 1.09375,-7.890625 0.738281,-2.15625 1.695313,-3.953125 2.875,-5.390625 1.175781,-1.4375 2.5,-2.554687 3.96875,-3.359375 1.46875,-0.800781 2.953125,-1.394531 4.453125,-1.78125 1.5,-0.394531 2.925781,-0.640625 4.28125,-0.734375 1.363281,-0.101563 2.535156,-0.15625 3.515625,-0.15625 3.300781,0 6.117187,0.296875 8.453125,0.890625 2.332031,0.585938 4.28125,1.351562 5.84375,2.296875 1.570312,0.949219 2.816406,2.042969 3.734375,3.28125 0.914063,1.242187 1.601563,2.523437 2.0625,3.84375 0.457031,1.324219 0.75,2.667969 0.875,4.03125 0.132813,1.355469 0.203125,2.621094 0.203125,3.796875 z m -26.46875,-1.171875 h 12.25 c 0,-1.539063 -0.04297,-2.90625 -0.125,-4.09375 -0.07422,-1.195313 -0.320312,-2.203125 -0.734375,-3.015625 -0.40625,-0.8125 -1.042969,-1.429688 -1.90625,-1.859375 -0.867187,-0.425781 -2.101563,-0.640625 -3.703125,-0.640625 -1.335938,0 -2.386719,0.214844 -3.15625,0.640625 -0.773438,0.429687 -1.355469,0.960937 -1.75,1.59375 -0.386719,0.636719 -0.632812,1.3125 -0.734375,2.03125 -0.09375,0.71875 -0.140625,1.355469 -0.140625,1.90625 z m 0,0"
                     id="path70" />
               </g>
            </g>
         </g>
         <g fill="#0dc3ff" fill-opacity="1" id="g84">
            <g transform="translate(439.99147,166.81397)" id="g82">
               <g id="g80">
                  <path
                     d="m 12.640625,-49.015625 v -8.625 c 0,-1.375 0.07031,-2.710937 0.21875,-4.015625 0.15625,-1.300781 0.492187,-2.46875 1.015625,-3.5 0.519531,-1.03125 1.269531,-1.863281 2.25,-2.5 0.976562,-0.632812 2.300781,-0.953125 3.96875,-0.953125 1.632812,0 2.941406,0.320313 3.921875,0.953125 0.976563,0.636719 1.71875,1.46875 2.21875,2.5 0.507813,1.03125 0.835937,2.199219 0.984375,3.5 0.15625,1.304688 0.234375,2.640625 0.234375,4.015625 v 8.625 h 4.015625 c 0.84375,0 1.6875,0.04297 2.53125,0.125 0.851562,0.08594 1.613281,0.324219 2.28125,0.71875 0.675781,0.386719 1.21875,0.976563 1.625,1.765625 0.40625,0.78125 0.609375,1.875 0.609375,3.28125 0,1.335938 -0.203125,2.398438 -0.609375,3.1875 -0.40625,0.78125 -0.949219,1.371094 -1.625,1.765625 -0.667969,0.386719 -1.429688,0.636719 -2.28125,0.75 -0.84375,0.117187 -1.6875,0.171875 -2.53125,0.171875 h -4.015625 v 17.15625 c 0,0.65625 0.01953,1.355469 0.0625,2.09375 0.05078,0.730469 0.222656,1.40625 0.515625,2.03125 0.289062,0.617188 0.726562,1.125 1.3125,1.53125 0.59375,0.40625 1.429688,0.609375 2.515625,0.609375 1.175781,0 2.179687,0.09375 3.015625,0.28125 0.832031,0.179687 1.515625,0.496094 2.046875,0.953125 0.539063,0.460938 0.941406,1.101562 1.203125,1.921875 0.257812,0.8125 0.390625,1.855469 0.390625,3.125 0,1.304687 -0.304687,2.429687 -0.90625,3.375 C 37.003906,-3.222656 36.195312,-2.4375 35.1875,-1.8125 34.175781,-1.1875 33,-0.726562 31.65625,-0.4375 30.320312,-0.144531 28.921875,0 27.453125,0 25.128906,0 23.140625,-0.242188 21.484375,-0.734375 19.835938,-1.222656 18.46875,-1.914062 17.375,-2.8125 16.28125,-3.71875 15.414062,-4.796875 14.78125,-6.046875 14.144531,-7.304688 13.671875,-8.71875 13.359375,-10.28125 c -0.3125,-1.570312 -0.511719,-3.265625 -0.59375,-5.078125 -0.08594,-1.8125 -0.125,-3.71875 -0.125,-5.71875 V -37.25 H 9.90625 c -0.855469,0 -1.699219,-0.05469 -2.53125,-0.171875 -0.835938,-0.113281 -1.578125,-0.363281 -2.234375,-0.75 C 4.492188,-38.566406 3.960938,-39.15625 3.546875,-39.9375 3.140625,-40.726562 2.9375,-41.789062 2.9375,-43.125 c 0,-1.40625 0.203125,-2.5 0.609375,-3.28125 0.414063,-0.789062 0.945313,-1.378906 1.59375,-1.765625 0.65625,-0.394531 1.398437,-0.632813 2.234375,-0.71875 0.832031,-0.08203 1.675781,-0.125 2.53125,-0.125 z m 0,0"
                     id="path78" />
               </g>
            </g>
         </g>
      </g>
   </g>
</svg>